<?xml version="1.0" encoding="utf-8"?>
<!-- Generator: Adobe Illustrator 22.0.1, SVG Export Plug-In . SVG Version: 6.00 Build 0)  -->
<svg version="1.1" id="Слой_1" xmlns="http://www.w3.org/2000/svg" xmlns:xlink="http://www.w3.org/1999/xlink" x="0px" y="0px"
	 viewBox="0 0 32 32" style="enable-background:new 0 0 32 32;" xml:space="preserve">
<style type="text/css">
	.st0{fill:#34ABE0;}
</style>
<title></title>
<g id="Layer_2">
	<path class="st0" d="M30.4,15.6l-1.9-1.9l-1-2.9c-0.1-0.2-0.2-0.3-0.4-0.3h-6.5V9c0-0.3-0.2-0.5-0.5-0.5H2C1.7,8.5,1.5,8.7,1.5,9
		S1.7,9.5,2,9.5h17.5v10h-6.1c-0.3-1.4-1.6-2.2-2.9-2c-1,0.2-1.8,1-2,2H5c-0.3,0-0.5,0.2-0.5,0.5s0.2,0.5,0.5,0.5h3.6
		c0.3,1.4,1.6,2.2,2.9,2c1-0.2,1.8-1,2-2h9.1c0.3,1.4,1.6,2.2,2.9,2c1-0.2,1.8-1,2-2H30c0.3,0,0.5-0.2,0.5-0.5v-4
		C30.5,15.9,30.4,15.7,30.4,15.6z M11,21.5c-0.8,0-1.5-0.7-1.5-1.5s0.7-1.5,1.5-1.5s1.5,0.7,1.5,1.5S11.8,21.5,11,21.5z M25,21.5
		c-0.8,0-1.5-0.7-1.5-1.5s0.7-1.5,1.5-1.5s1.5,0.7,1.5,1.5S25.8,21.5,25,21.5z M29.5,19.5h-2c-0.3-1.4-1.6-2.2-2.9-2
		c-1,0.2-1.8,1-2,2h-2.1v-8h6.1l0.9,2.7c0,0.1,0.1,0.1,0.1,0.2l1.9,1.9V19.5z"/>
	<path class="st0" d="M11.5,16c0-0.3-0.2-0.5-0.5-0.5H4c-0.3,0-0.5,0.2-0.5,0.5s0.2,0.5,0.5,0.5h7C11.3,16.5,11.5,16.3,11.5,16z"/>
	<path class="st0" d="M12,13.5c0.3,0,0.5-0.2,0.5-0.5s-0.2-0.5-0.5-0.5H7c-0.3,0-0.5,0.2-0.5,0.5s0.2,0.5,0.5,0.5H12z"/>
	<path class="st0" d="M4.5,13c0-0.3-0.2-0.5-0.5-0.5H3c-0.3,0-0.5,0.2-0.5,0.5s0.2,0.5,0.5,0.5h1C4.3,13.5,4.5,13.3,4.5,13z"/>
</g>
</svg>
