<?xml version="1.0" encoding="utf-8"?>
<!-- Generator: Adobe Illustrator 22.0.1, SVG Export Plug-In . SVG Version: 6.00 Build 0)  -->
<svg version="1.1" id="Слой_1" xmlns="http://www.w3.org/2000/svg" xmlns:xlink="http://www.w3.org/1999/xlink" x="0px" y="0px"
	 viewBox="0 0 48 48" style="enable-background:new 0 0 48 48;" xml:space="preserve">
<style type="text/css">
	.st0{fill:#34ABE0;}
</style>
<title></title>
<g id="Cat_Virus">
	<path class="st0" d="M29,21c3.8,0,5.1-5,3-5c-0.6,0-1,0.4-1,1c0,1.1-0.9,2-2,2s-2-0.9-2-2c0-0.6-0.4-1-1-1C23.9,16,25.2,21,29,21z"
		/>
	<path class="st0" d="M21,17c0-0.6-0.4-1-1-1s-1,0.4-1,1c0,1.1-0.9,2-2,2s-2-0.9-2-2c0-0.6-0.4-1-1-1s-1,0.4-1,1c0,2.2,1.8,4,4,4
		S21,19.2,21,17z"/>
	<path class="st0" d="M41.6,27c-0.3-1.2-0.9-2.3-1.6-3.3c0-0.7-0.1-1.4-0.2-2.1c2.7-3.9,3.6-14.9,3.2-20.6c-0.2-2.6-7.9,0-14.4,7
		C25,6.7,21,6.7,17.4,8C15.9,6.3,9.7,0,4,0C3.5,0,3,0.4,3,0.9C2.5,6.7,3.5,17.8,6.2,21.6c0,0.3-0.1,0.5-0.1,0.8l-4.5-3.2
		c-0.5-0.3-1.1-0.1-1.4,0.3c-0.3,0.4-0.2,1,0.2,1.3l5.1,3.6C4.5,26.1,3.9,28,4,30H1c-0.6,0-1,0.4-1,1s0.4,1,1,1h3.3
		c0.4,1.8,1.3,3.4,2.5,4.7l-6.4,4.5c-0.5,0.3-0.6,0.9-0.2,1.4C0.4,42.8,0.7,43,1,43c0.5,0,0,0.2,7.4-5c2.2,1.5,3.1,1.4,14.4,3.9
		c0.3,0.1,0.2,0.1,4-0.8c2.3,5.6,8.7,8.3,14.3,6s8.3-8.7,6-14.3C46.1,30.2,44.1,28.2,41.6,27z M39,18.4c-1-2.8-2.7-5.3-4.9-7.2
		c1.9-2.3,4.3-4.1,7-5.3C41,10.1,40.3,14.3,39,18.4z M41,2.1c0,0.4,0,1,0,1.6c-2.2,0.9-6.2,3-8.6,6.2c-0.6-0.4-1.2-0.8-1.9-1.1
		C32.4,6.9,36.9,2.7,41,2.1L41,2.1z M15.4,8.8c-0.7,0.3-1.3,0.7-1.9,1.1c-2.4-3.2-6.4-5.3-8.6-6.2c0-0.6,0-1.2,0-1.6
		C9.1,2.7,13.6,6.9,15.4,8.8z M4.9,5.9c2.7,1.2,5.1,3,7,5.3C9.7,13.1,8,15.6,7,18.4C5.7,14.3,5,10.1,4.9,5.9z M23,40
		c-11.8-2.6-11.5-2.5-12.8-3.2l1.4-1c0.4-0.3,0.5-1,0.2-1.4c-0.3-0.4-0.9-0.5-1.3-0.2l-2,1.4c-1-1-1.7-2.2-2.1-3.5H11
		c0.6,0,1-0.4,1-1s-0.4-1-1-1c-5.5,0-5,0.1-5-0.3c0-1.5,0.4-2.9,1.2-4.2l3.2,2.3c0.5,0.3,1.1,0.1,1.4-0.3c0.3-0.4,0.2-1-0.2-1.3
		L8,23.7c0.1-8.3,6.9-14.9,15.2-14.8C31.4,8.9,38.1,15.7,38,24c0,0.6,0.5,0.8,1.2,2.2c-5.9-1.2-11.8,2.6-13,8.6c0,0,0,0,0,0
		c-0.7,0.4-1.6,0.1-2-0.6C24.1,34,24,33.7,24,33.5v-1.1l3.1-3.1c1.2-1.2,1.2-3.2,0-4.4c-0.6-0.6-1.4-0.9-2.2-0.9h-3.8
		c-1.7,0-3.1,1.4-3.1,3.1v0c0,1.7,1.1,2.4,4,5.3v1.1c0,0.8-0.7,1.5-1.5,1.5S19,34.3,19,33.5V33c0-0.6-0.4-1-1-1s-1,0.4-1,1
		c0,4.1,4,5,6,2.9c0.8,0.8,1.9,1.2,3,1c0,0.8,0.1,1.5,0.2,2.3L23,40z M23,30.6c-2.9-2.9-3-2.9-3-3.5c0-0.6,0.5-1.1,1.1-1.1
		c0,0,0,0,0,0h3.8c0.6,0,1.1,0.5,1.1,1.1c0,0.3-0.1,0.6-0.3,0.8L23,30.6z M37,46c-5,0-9-4-9-9s4-9,9-9s9,4,9,9S42,46,37,46z"/>
	<path class="st0" d="M43,36c-2,0-0.5,0.3-1.8-1.8l0.8-0.8c0.4-0.4,0.4-1,0-1.4c-0.4-0.4-1-0.4-1.4,0l-0.8,0.8
		C37.8,31.5,38,32.9,38,31c0-0.6-0.4-1-1-1s-1,0.4-1,1c0,2,0.3,0.5-1.8,1.8l-0.8-0.8c-0.4-0.4-1-0.4-1.4,0c-0.4,0.4-0.4,1,0,1.4
		l0.8,0.8C31.5,36.2,32.9,36,31,36c-0.6,0-1,0.4-1,1s0.4,1,1,1c2,0,0.5-0.3,1.8,1.8l-0.8,0.8c-0.4,0.4-0.4,1,0,1.4
		c0.4,0.4,1,0.4,1.4,0l0,0c1.4-1.4,0.2-0.5,2.5,0v1c0,0.6,0.4,1,1,1s1-0.4,1-1v-1.1c2.3-0.5,1.1-1.3,2.5,0c0.4,0.4,1,0.4,1.4,0
		c0.4-0.4,0.4-1,0-1.4l0,0l-0.8-0.8c1.2-1.9-0.1-1.8,1.8-1.8c0.6,0,1-0.4,1-1S43.6,36,43,36z M37,40c-1.7,0-3-1.3-3-3s1.3-3,3-3
		s3,1.3,3,3S38.7,40,37,40z"/>
	<path class="st0" d="M36,35c-0.6,0-1,0.4-1,1s0.4,1,1,1s1-0.4,1-1S36.6,35,36,35z"/>
	<path class="st0" d="M38,37c-0.6,0-1,0.4-1,1s0.4,1,1,1s1-0.4,1-1S38.6,37,38,37z"/>
</g>
</svg>
