<?xml version="1.0" ?><svg viewBox="0 0 48 48" xmlns="http://www.w3.org/2000/svg"><title/><g data-name="Cat Virus" id="Cat_Virus"><path d="M29,21c3.85,0,5.07-5,3-5a1,1,0,0,0-1,1,2,2,0,0,1-4,0,1,1,0,0,0-1-1C23.92,16,25.17,21,29,21Z"/><path d="M21,17a1,1,0,0,0-2,0,2,2,0,0,1-4,0,1,1,0,0,0-2,0,4,4,0,0,0,8,0Z"/><path d="M41.62,27A10.85,10.85,0,0,0,40,23.67a16.22,16.22,0,0,0-.17-2.1C42.57,17.69,43.47,6.66,43,.92c-.22-2.56-7.86,0-14.41,7A16.76,16.76,0,0,0,17.41,8C15.91,6.34,9.68,0,4,0A1,1,0,0,0,3,.92c-.48,5.8.49,16.86,3.19,20.65,0,.26-.08.51-.11.77L1.57,19.18A1,1,0,0,0,.43,20.82l5.12,3.59A9.91,9.91,0,0,0,4,30H1a1,1,0,0,0,0,2H4.26A10,10,0,0,0,6.8,36.72L.43,41.18A1,1,0,0,0,1,43c.45,0,0,.2,7.39-5,2.2,1.48,3.08,1.41,14.39,3.93.31.06.17.06,4-.81A11,11,0,1,0,41.62,27ZM39,18.38a17.12,17.12,0,0,0-4.94-7.24,18.49,18.49,0,0,1,7-5.26A41.22,41.22,0,0,1,39,18.38Zm2-16.31c0,.42,0,1,0,1.61-2.21.95-6.22,3-8.59,6.24A15.64,15.64,0,0,0,30.56,8.8C32.37,6.94,36.92,2.67,41.06,2.07ZM15.44,8.8a15.64,15.64,0,0,0-1.95,1.12C11.12,6.7,7.11,4.63,4.9,3.68c0-.64,0-1.19,0-1.61C9.08,2.67,13.63,6.94,15.44,8.8ZM4.92,5.88a18.54,18.54,0,0,1,7,5.26A17.12,17.12,0,0,0,7,18.38,41.19,41.19,0,0,1,4.92,5.88ZM23,40c-11.75-2.62-11.46-2.45-12.82-3.19l1.39-1a1,1,0,0,0-1.14-1.64l-2,1.37A8,8,0,0,1,6.32,32H11a1,1,0,0,0,0-2c-5.5,0-5,.11-5-.26a8,8,0,0,1,1.19-4.18l3.24,2.26a1,1,0,0,0,1.14-1.64L8,23.69A15,15,0,0,1,38,24c0,.57.49.82,1.17,2.22a11,11,0,0,0-13,8.57A1.48,1.48,0,0,1,24,33.5V32.41l3.09-3.08A3.13,3.13,0,0,0,24.88,24H21.12A3.12,3.12,0,0,0,18,27.12c0,1.74,1.13,2.43,4,5.29V33.5a1.5,1.5,0,0,1-3,0V33a1,1,0,0,0-2,0c0,4.07,4,5,6,2.94a3.43,3.43,0,0,0,3,1,11.67,11.67,0,0,0,.23,2.31Zm0-9.39c-2.87-2.87-3-2.85-3-3.47A1.12,1.12,0,0,1,21.12,26h3.76a1.12,1.12,0,0,1,.79,1.91ZM37,46a9,9,0,1,1,9-9A9,9,0,0,1,37,46Z"/><path d="M43,36c-2,0-.5.26-1.83-1.75l.78-.78a1,1,0,0,0-1.42-1.42l-.78.78C37.82,31.55,38,32.92,38,31a1,1,0,0,0-2,0c0,2,.26.5-1.75,1.83l-.78-.78a1,1,0,0,0-1.42,1.42l.78.78C31.55,36.18,32.92,36,31,36a1,1,0,0,0,0,2c2,0,.5-.26,1.83,1.75l-.78.78A1,1,0,0,0,33.47,42c1.42-1.42.15-.54,2.53-.05V43a1,1,0,0,0,2,0V41.9c2.32-.47,1.13-1.35,2.53.05A1,1,0,0,0,42,40.53l-.78-.78C42.45,37.82,41.08,38,43,38A1,1,0,0,0,43,36Zm-6,4a3,3,0,1,1,3-3A3,3,0,0,1,37,40Z"/><path d="M36,35a1,1,0,0,0,0,2A1,1,0,0,0,36,35Z"/><path d="M38,37a1,1,0,0,0,0,2A1,1,0,0,0,38,37Z"/></g></svg>