<?xml version="1.0" encoding="utf-8"?>
<!-- Generator: Adobe Illustrator 22.0.1, SVG Export Plug-In . SVG Version: 6.00 Build 0)  -->
<svg version="1.1" id="Слой_1" xmlns="http://www.w3.org/2000/svg" xmlns:xlink="http://www.w3.org/1999/xlink" x="0px" y="0px"
	 viewBox="0 0 12 10" style="enable-background:new 0 0 12 10;" xml:space="preserve">
<style type="text/css">
	.st0{fill:#F3F4F9;}
</style>
<rect y="0" class="st0" width="12" height="10"/>
<path d="M11.4,6H0.6C0,6,0,5.6,0,5s0-1,0.6-1h10.8C12,4,12,4.4,12,5S12,6,11.4,6L11.4,6z M11.4,2H0.6C0,2,0,1.6,0,1s0-1,0.6-1h10.8
	C12,0,12,0.4,12,1S12,2,11.4,2L11.4,2z M0.6,8h10.8C12,8,12,8.4,12,9s0,1-0.6,1H0.6C0,10,0,9.6,0,9S0,8,0.6,8z"/>
</svg>
