<?xml version="1.0" encoding="utf-8"?>
<!-- Generator: Adobe Illustrator 22.0.1, SVG Export Plug-In . SVG Version: 6.00 Build 0)  -->
<svg version="1.1" id="Layer_2" xmlns="http://www.w3.org/2000/svg" xmlns:xlink="http://www.w3.org/1999/xlink" x="0px" y="0px"
	 viewBox="0 0 100 100" style="enable-background:new 0 0 100 100;" xml:space="preserve">
<style type="text/css">
	.st0{fill:#34ABE0;}
</style>
<g id="XMLID_2_">
	<g id="XMLID_4_">
		<path class="st0" d="M46.7,85.3L26.4,21.2l-18,44.5H2.6c-1.5,0-2.7-1.2-2.7-2.7l0,0c0-1.5,1.2-2.7,2.7-2.7h2.2l18.2-45
			c0.5-1.4,1.9-2.4,3.6-2.3c1.7,0,3.1,1,3.6,2.6l19,60.1l10.4-29.2c0.6-1.5,1.9-2.4,3.4-2.5s2.8,0.8,3.6,2.1l8.3,14.5h22.4
			c1.5,0,2.7,1.2,2.7,2.7l0,0c0,1.5-1.2,2.7-2.7,2.7H71.8l-8.3-14.4l-12.1,34C50.6,87.6,47.4,87.6,46.7,85.3z"/>
	</g>
</g>
</svg>
