<?xml version="1.0" encoding="utf-8"?>
<!-- Generator: Adobe Illustrator 22.0.1, SVG Export Plug-In . SVG Version: 6.00 Build 0)  -->
<svg version="1.1" id="Layer_1" xmlns="http://www.w3.org/2000/svg" xmlns:xlink="http://www.w3.org/1999/xlink" x="0px" y="0px"
	 viewBox="0 0 24 24" style="enable-background:new 0 0 24 24;" xml:space="preserve">
<style type="text/css">
	.st0{fill:#34ABE0;}
</style>
<g>
	<path class="st0" d="M21.9,0.6h-7.6c-0.8,0-1.5,0.7-1.5,1.5v7.6c0,0.8,0.7,1.5,1.5,1.5h7.6c0.8,0,1.5-0.7,1.5-1.5V2.1
		C23.4,1.3,22.7,0.6,21.9,0.6z M22.6,9.7c0,0.4-0.3,0.7-0.7,0.7h-7.6c-0.4,0-0.7-0.3-0.7-0.7V2.1c0-0.4,0.3-0.7,0.7-0.7h7.6
		c0.4,0,0.7,0.3,0.7,0.7V9.7z"/>
	<path class="st0" d="M9.7,12.7H2.1c-0.8,0-1.5,0.7-1.5,1.5v7.6c0,0.8,0.7,1.5,1.5,1.5h7.6c0.8,0,1.5-0.7,1.5-1.5v-7.6
		C11.3,13.4,10.6,12.7,9.7,12.7z M10.5,21.9c0,0.4-0.3,0.7-0.7,0.7H2.1c-0.4,0-0.7-0.3-0.7-0.7v-7.6c0-0.4,0.3-0.7,0.7-0.7h7.6
		c0.4,0,0.7,0.3,0.7,0.7V21.9z"/>
	<path class="st0" d="M21.9,12.7h-7.6c-0.8,0-1.5,0.7-1.5,1.5v7.6c0,0.8,0.7,1.5,1.5,1.5h7.6c0.8,0,1.5-0.7,1.5-1.5v-7.6
		C23.4,13.4,22.7,12.7,21.9,12.7z M22.6,21.9c0,0.4-0.3,0.7-0.7,0.7h-7.6c-0.4,0-0.7-0.3-0.7-0.7v-7.6c0-0.4,0.3-0.7,0.7-0.7h7.6
		c0.4,0,0.7,0.3,0.7,0.7V21.9z"/>
	<path class="st0" d="M9.7,0.6H2.1c-0.8,0-1.5,0.7-1.5,1.5v7.6c0,0.8,0.7,1.5,1.5,1.5h7.6c0.8,0,1.5-0.7,1.5-1.5V2.1
		C11.3,1.3,10.6,0.6,9.7,0.6z M10.5,9.7c0,0.4-0.3,0.7-0.7,0.7H2.1c-0.4,0-0.7-0.3-0.7-0.7V2.1c0-0.4,0.3-0.7,0.7-0.7h7.6
		c0.4,0,0.7,0.3,0.7,0.7V9.7z"/>
</g>
</svg>
