<?xml version="1.0" encoding="utf-8"?>
<!-- Generator: Adobe Illustrator 16.0.0, SVG Export Plug-In . SVG Version: 6.00 Build 0)  -->
<!DOCTYPE svg PUBLIC "-//W3C//DTD SVG 1.1 Tiny//EN" "http://www.w3.org/Graphics/SVG/1.1/DTD/svg11-tiny.dtd">
<svg version="1.1" baseProfile="tiny" id="Layer_1" xmlns="http://www.w3.org/2000/svg" xmlns:xlink="http://www.w3.org/1999/xlink"
	 x="0px" y="0px" width="24px" height="24px" viewBox="0 0 24 24" xml:space="preserve">
<g>
	<path d="M21.862,0.6h-7.586c-0.849,0-1.539,0.69-1.539,1.539v7.586c0,0.848,0.69,1.537,1.539,1.537h7.586
		c0.848,0,1.538-0.689,1.538-1.537V2.139C23.4,1.29,22.71,0.6,21.862,0.6z M22.6,9.725c0,0.406-0.33,0.736-0.737,0.736h-7.586
		c-0.407,0-0.738-0.33-0.738-0.736V2.139c0-0.407,0.331-0.738,0.738-0.738h7.586c0.407,0,0.737,0.331,0.737,0.738V9.725z"/>
	<path d="M9.725,12.737H2.139c-0.849,0-1.539,0.69-1.539,1.539v7.586c0,0.848,0.69,1.538,1.539,1.538h7.586
		c0.848,0,1.537-0.69,1.537-1.538v-7.586C11.262,13.428,10.572,12.737,9.725,12.737z M10.461,21.862c0,0.407-0.33,0.737-0.736,0.737
		H2.139c-0.407,0-0.738-0.33-0.738-0.737v-7.586c0-0.407,0.331-0.738,0.738-0.738h7.586c0.406,0,0.736,0.331,0.736,0.738V21.862z"/>
	<path d="M21.862,12.737h-7.586c-0.849,0-1.539,0.69-1.539,1.539v7.586c0,0.848,0.69,1.538,1.539,1.538h7.586
		c0.848,0,1.538-0.69,1.538-1.538v-7.586C23.4,13.428,22.71,12.737,21.862,12.737z M22.6,21.862c0,0.407-0.33,0.737-0.737,0.737
		h-7.586c-0.407,0-0.738-0.33-0.738-0.737v-7.586c0-0.407,0.331-0.738,0.738-0.738h7.586c0.407,0,0.737,0.331,0.737,0.738V21.862z"
		/>
	<path d="M9.725,0.6H2.139C1.29,0.6,0.6,1.29,0.6,2.139v7.586c0,0.848,0.69,1.537,1.539,1.537h7.586
		c0.848,0,1.537-0.689,1.537-1.537V2.139C11.262,1.29,10.572,0.6,9.725,0.6z M10.461,9.725c0,0.406-0.33,0.736-0.736,0.736H2.139
		c-0.407,0-0.738-0.33-0.738-0.736V2.139C1.4,1.731,1.731,1.4,2.139,1.4h7.586c0.406,0,0.736,0.331,0.736,0.738V9.725z"/>
</g>
</svg>
